STARTFONT 2.1
FONT -Schumacher-Clean-Medium-R-Normal--8-80-75-75-M-60-FontSpecific-0
SIZE 8 75 75
FONTBOUNDINGBOX 6 8 0 -1
STARTPROPERTIES 25
FONT_NAME "CleanMedium"
FONT_ASCENT 7
FONT_DESCENT 1
QUAD_WIDTH 8
X_HEIGHT 4
CAP_HEIGHT 6
FONTNAME_REGISTRY ""
FAMILY_NAME "Clean"
FOUNDRY "Schumacher"
WEIGHT_NAME "Medium"
SETWIDTH_NAME "Normal"
SLANT "R"
ADD_STYLE_NAME ""
PIXEL_SIZE 8
POINT_SIZE 80
RESOLUTION_X 75
RESOLUTION_Y 75
RESOLUTION 75
SPACING "M"
AVERAGE_WIDTH 60
CHARSET_REGISTRY "FontSpecific"
CHARSET_ENCODING "0"
CHARSET_COLLECTIONS "ASCII ISOLatin2Encoding FontSpecific"
FULL_NAME "Clean Medium"
COPYRIGHT "Copyright 1989 Dale Schumacher."
ENDPROPERTIES
CHARS 190
STARTCHAR space
ENCODING 32
SWIDTH 720 0
DWIDTH 6 0
BBX 1 1 5 -1
BITMAP
00
ENDCHAR
STARTCHAR exclamation
ENCODING 33
SWIDTH 720 0
DWIDTH 6 0
BBX 1 7 3 0
BITMAP
80
80
80
80
80
00
80
ENDCHAR
STARTCHAR double
ENCODING 34
SWIDTH 720 0
DWIDTH 6 0
BBX 3 2 2 5
BITMAP
A0
A0
ENDCHAR
STARTCHAR hash
ENCODING 35
SWIDTH 720 0
DWIDTH 6 0
BBX 5 5 1 1
BITMAP
50
F8
50
F8
50
ENDCHAR
STARTCHAR dollar
ENCODING 36
SWIDTH 720 0
DWIDTH 6 0
BBX 5 7 1 0
BITMAP
20
78
A0
70
28
F0
20
ENDCHAR
STARTCHAR percent
ENCODING 37
SWIDTH 720 0
DWIDTH 6 0
BBX 5 7 1 0
BITMAP
C0
C8
10
20
40
98
18
ENDCHAR
STARTCHAR ampersand
ENCODING 38
SWIDTH 720 0
DWIDTH 6 0
BBX 5 7 1 0
BITMAP
60
90
90
60
A8
90
68
ENDCHAR
STARTCHAR apostrophe
ENCODING 39
SWIDTH 720 0
DWIDTH 6 0
BBX 2 2 2 5
BITMAP
40
80
ENDCHAR
STARTCHAR open
ENCODING 40
SWIDTH 720 0
DWIDTH 6 0
BBX 3 7 3 0
BITMAP
20
40
80
80
80
40
20
ENDCHAR
STARTCHAR close
ENCODING 41
SWIDTH 720 0
DWIDTH 6 0
BBX 3 7 1 0
BITMAP
80
40
20
20
20
40
80
ENDCHAR
STARTCHAR asterisk
ENCODING 42
SWIDTH 720 0
DWIDTH 6 0
BBX 5 5 1 1
BITMAP
20
A8
70
A8
20
ENDCHAR
STARTCHAR plus
ENCODING 43
SWIDTH 720 0
DWIDTH 6 0
BBX 5 5 1 1
BITMAP
20
20
F8
20
20
ENDCHAR
STARTCHAR comma
ENCODING 44
SWIDTH 720 0
DWIDTH 6 0
BBX 2 3 2 -1
BITMAP
40
40
80
ENDCHAR
STARTCHAR minus
ENCODING 45
SWIDTH 720 0
DWIDTH 6 0
BBX 5 1 1 3
BITMAP
F8
ENDCHAR
STARTCHAR full
ENCODING 46
SWIDTH 720 0
DWIDTH 6 0
BBX 1 2 3 0
BITMAP
80
80
ENDCHAR
STARTCHAR slash
ENCODING 47
SWIDTH 720 0
DWIDTH 6 0
BBX 4 8 2 -1
BITMAP
10
10
20
20
40
40
80
80
ENDCHAR
STARTCHAR digit
ENCODING 48
SWIDTH 720 0
DWIDTH 6 0
BBX 5 7 1 0
BITMAP
70
88
98
A8
C8
88
70
ENDCHAR
STARTCHAR digit
ENCODING 49
SWIDTH 720 0
DWIDTH 6 0
BBX 2 7 2 0
BITMAP
40
C0
40
40
40
40
40
ENDCHAR
STARTCHAR digit
ENCODING 50
SWIDTH 720 0
DWIDTH 6 0
BBX 5 7 1 0
BITMAP
70
88
08
10
20
40
F8
ENDCHAR
STARTCHAR digit
ENCODING 51
SWIDTH 720 0
DWIDTH 6 0
BBX 5 7 1 0
BITMAP
70
88
08
30
08
88
70
ENDCHAR
STARTCHAR digit
ENCODING 52
SWIDTH 720 0
DWIDTH 6 0
BBX 5 7 1 0
BITMAP
10
30
50
90
F8
10
10
ENDCHAR
STARTCHAR digit
ENCODING 53
SWIDTH 720 0
DWIDTH 6 0
BBX 5 7 1 0
BITMAP
F8
80
F0
08
08
88
70
ENDCHAR
STARTCHAR digit
ENCODING 54
SWIDTH 720 0
DWIDTH 6 0
BBX 5 7 1 0
BITMAP
30
40
80
F0
88
88
70
ENDCHAR
STARTCHAR digit
ENCODING 55
SWIDTH 720 0
DWIDTH 6 0
BBX 5 7 1 0
BITMAP
F8
88
08
10
10
20
20
ENDCHAR
STARTCHAR digit
ENCODING 56
SWIDTH 720 0
DWIDTH 6 0
BBX 5 7 1 0
BITMAP
70
88
88
70
88
88
70
ENDCHAR
STARTCHAR digit
ENCODING 57
SWIDTH 720 0
DWIDTH 6 0
BBX 5 7 1 0
BITMAP
70
88
88
78
08
10
60
ENDCHAR
STARTCHAR colon
ENCODING 58
SWIDTH 720 0
DWIDTH 6 0
BBX 1 6 3 0
BITMAP
80
80
00
00
80
80
ENDCHAR
STARTCHAR semicolon
ENCODING 59
SWIDTH 720 0
DWIDTH 6 0
BBX 2 7 2 -1
BITMAP
40
40
00
00
40
40
80
ENDCHAR
STARTCHAR less-than
ENCODING 60
SWIDTH 720 0
DWIDTH 6 0
BBX 6 5 0 1
BITMAP
0C
30
C0
30
0C
ENDCHAR
STARTCHAR equal
ENCODING 61
SWIDTH 720 0
DWIDTH 6 0
BBX 5 3 1 2
BITMAP
F8
00
F8
ENDCHAR
STARTCHAR greater-than
ENCODING 62
SWIDTH 720 0
DWIDTH 6 0
BBX 6 5 0 1
BITMAP
C0
30
0C
30
C0
ENDCHAR
STARTCHAR question
ENCODING 63
SWIDTH 720 0
DWIDTH 6 0
BBX 5 7 1 0
BITMAP
70
88
08
10
20
00
20
ENDCHAR
STARTCHAR commercial
ENCODING 64
SWIDTH 720 0
DWIDTH 6 0
BBX 5 7 1 0
BITMAP
70
88
B8
B8
B0
80
70
ENDCHAR
STARTCHAR A
ENCODING 65
SWIDTH 720 0
DWIDTH 6 0
BBX 5 7 1 0
BITMAP
20
50
88
88
F8
88
88
ENDCHAR
STARTCHAR B
ENCODING 66
SWIDTH 720 0
DWIDTH 6 0
BBX 5 7 1 0
BITMAP
F0
88
88
F0
88
88
F0
ENDCHAR
STARTCHAR C
ENCODING 67
SWIDTH 720 0
DWIDTH 6 0
BBX 5 7 1 0
BITMAP
70
88
80
80
80
88
70
ENDCHAR
STARTCHAR D
ENCODING 68
SWIDTH 720 0
DWIDTH 6 0
BBX 5 7 1 0
BITMAP
E0
90
88
88
88
90
E0
ENDCHAR
STARTCHAR E
ENCODING 69
SWIDTH 720 0
DWIDTH 6 0
BBX 5 7 1 0
BITMAP
F8
80
80
F0
80
80
F8
ENDCHAR
STARTCHAR F
ENCODING 70
SWIDTH 720 0
DWIDTH 6 0
BBX 5 7 1 0
BITMAP
F8
80
80
F0
80
80
80
ENDCHAR
STARTCHAR G
ENCODING 71
SWIDTH 720 0
DWIDTH 6 0
BBX 5 7 1 0
BITMAP
70
88
80
98
88
88
78
ENDCHAR
STARTCHAR H
ENCODING 72
SWIDTH 720 0
DWIDTH 6 0
BBX 5 7 1 0
BITMAP
88
88
88
F8
88
88
88
ENDCHAR
STARTCHAR I
ENCODING 73
SWIDTH 720 0
DWIDTH 6 0
BBX 5 7 1 0
BITMAP
F8
20
20
20
20
20
F8
ENDCHAR
STARTCHAR J
ENCODING 74
SWIDTH 720 0
DWIDTH 6 0
BBX 5 7 1 0
BITMAP
38
08
08
08
88
88
70
ENDCHAR
STARTCHAR K
ENCODING 75
SWIDTH 720 0
DWIDTH 6 0
BBX 5 7 1 0
BITMAP
88
90
A0
C0
A0
90
88
ENDCHAR
STARTCHAR L
ENCODING 76
SWIDTH 720 0
DWIDTH 6 0
BBX 5 7 1 0
BITMAP
80
80
80
80
80
80
F8
ENDCHAR
STARTCHAR M
ENCODING 77
SWIDTH 720 0
DWIDTH 6 0
BBX 5 7 1 0
BITMAP
88
D8
A8
A8
88
88
88
ENDCHAR
STARTCHAR N
ENCODING 78
SWIDTH 720 0
DWIDTH 6 0
BBX 5 7 1 0
BITMAP
88
C8
C8
A8
98
98
88
ENDCHAR
STARTCHAR O
ENCODING 79
SWIDTH 720 0
DWIDTH 6 0
BBX 5 7 1 0
BITMAP
70
88
88
88
88
88
70
ENDCHAR
STARTCHAR P
ENCODING 80
SWIDTH 720 0
DWIDTH 6 0
BBX 5 7 1 0
BITMAP
F0
88
88
F0
80
80
80
ENDCHAR
STARTCHAR Q
ENCODING 81
SWIDTH 720 0
DWIDTH 6 0
BBX 5 8 1 -1
BITMAP
70
88
88
88
88
88
70
18
ENDCHAR
STARTCHAR R
ENCODING 82
SWIDTH 720 0
DWIDTH 6 0
BBX 5 7 1 0
BITMAP
F0
88
88
F0
A0
90
88
ENDCHAR
STARTCHAR S
ENCODING 83
SWIDTH 720 0
DWIDTH 6 0
BBX 5 7 1 0
BITMAP
70
88
80
70
08
88
70
ENDCHAR
STARTCHAR T
ENCODING 84
SWIDTH 720 0
DWIDTH 6 0
BBX 5 7 1 0
BITMAP
F8
20
20
20
20
20
20
ENDCHAR
STARTCHAR U
ENCODING 85
SWIDTH 720 0
DWIDTH 6 0
BBX 5 7 1 0
BITMAP
88
88
88
88
88
88
70
ENDCHAR
STARTCHAR V
ENCODING 86
SWIDTH 720 0
DWIDTH 6 0
BBX 5 7 1 0
BITMAP
88
88
88
50
50
20
20
ENDCHAR
STARTCHAR W
ENCODING 87
SWIDTH 720 0
DWIDTH 6 0
BBX 5 7 1 0
BITMAP
88
88
88
A8
A8
D8
88
ENDCHAR
STARTCHAR X
ENCODING 88
SWIDTH 720 0
DWIDTH 6 0
BBX 5 7 1 0
BITMAP
88
88
50
20
50
88
88
ENDCHAR
STARTCHAR Y
ENCODING 89
SWIDTH 720 0
DWIDTH 6 0
BBX 5 7 1 0
BITMAP
88
88
50
20
20
20
20
ENDCHAR
STARTCHAR Z
ENCODING 90
SWIDTH 720 0
DWIDTH 6 0
BBX 5 7 1 0
BITMAP
F8
08
10
20
40
80
F8
ENDCHAR
STARTCHAR left
ENCODING 91
SWIDTH 720 0
DWIDTH 6 0
BBX 3 7 3 0
BITMAP
E0
80
80
80
80
80
E0
ENDCHAR
STARTCHAR backslash
ENCODING 92
SWIDTH 720 0
DWIDTH 6 0
BBX 4 8 2 -1
BITMAP
80
80
40
40
20
20
10
10
ENDCHAR
STARTCHAR right
ENCODING 93
SWIDTH 720 0
DWIDTH 6 0
BBX 3 7 1 0
BITMAP
E0
20
20
20
20
20
E0
ENDCHAR
STARTCHAR circumflex
ENCODING 94
SWIDTH 720 0
DWIDTH 6 0
BBX 5 3 1 4
BITMAP
20
50
88
ENDCHAR
STARTCHAR underscore
ENCODING 95
SWIDTH 720 0
DWIDTH 6 0
BBX 6 1 0 0
BITMAP
FC
ENDCHAR
STARTCHAR grave
ENCODING 96
SWIDTH 720 0
DWIDTH 6 0
BBX 2 2 3 5
BITMAP
80
40
ENDCHAR
STARTCHAR a
ENCODING 97
SWIDTH 720 0
DWIDTH 6 0
BBX 5 5 1 0
BITMAP
78
88
88
98
68
ENDCHAR
STARTCHAR b
ENCODING 98
SWIDTH 720 0
DWIDTH 6 0
BBX 5 7 1 0
BITMAP
80
80
F0
88
88
88
F0
ENDCHAR
STARTCHAR c
ENCODING 99
SWIDTH 720 0
DWIDTH 6 0
BBX 5 5 1 0
BITMAP
78
80
80
80
78
ENDCHAR
STARTCHAR d
ENCODING 100
SWIDTH 720 0
DWIDTH 6 0
BBX 5 7 1 0
BITMAP
08
08
78
88
88
88
78
ENDCHAR
STARTCHAR e
ENCODING 101
SWIDTH 720 0
DWIDTH 6 0
BBX 5 5 1 0
BITMAP
70
88
F8
80
70
ENDCHAR
STARTCHAR f
ENCODING 102
SWIDTH 720 0
DWIDTH 6 0
BBX 5 7 1 0
BITMAP
38
40
F0
40
40
40
40
ENDCHAR
STARTCHAR g
ENCODING 103
SWIDTH 720 0
DWIDTH 6 0
BBX 5 6 1 -1
BITMAP
78
88
88
78
08
70
ENDCHAR
STARTCHAR h
ENCODING 104
SWIDTH 720 0
DWIDTH 6 0
BBX 5 7 1 0
BITMAP
80
80
F0
88
88
88
88
ENDCHAR
STARTCHAR i
ENCODING 105
SWIDTH 720 0
DWIDTH 6 0
BBX 3 7 2 0
BITMAP
40
00
C0
40
40
40
E0
ENDCHAR
STARTCHAR j
ENCODING 106
SWIDTH 720 0
DWIDTH 6 0
BBX 4 8 1 -1
BITMAP
10
00
70
10
10
10
10
E0
ENDCHAR
STARTCHAR k
ENCODING 107
SWIDTH 720 0
DWIDTH 6 0
BBX 4 7 1 0
BITMAP
80
80
90
A0
C0
A0
90
ENDCHAR
STARTCHAR l
ENCODING 108
SWIDTH 720 0
DWIDTH 6 0
BBX 3 7 2 0
BITMAP
C0
40
40
40
40
40
E0
ENDCHAR
STARTCHAR m
ENCODING 109
SWIDTH 720 0
DWIDTH 6 0
BBX 5 5 1 0
BITMAP
D0
A8
A8
A8
88
ENDCHAR
STARTCHAR n
ENCODING 110
SWIDTH 720 0
DWIDTH 6 0
BBX 5 5 1 0
BITMAP
B0
C8
88
88
88
ENDCHAR
STARTCHAR o
ENCODING 111
SWIDTH 720 0
DWIDTH 6 0
BBX 5 5 1 0
BITMAP
70
88
88
88
70
ENDCHAR
STARTCHAR p
ENCODING 112
SWIDTH 720 0
DWIDTH 6 0
BBX 5 6 1 -1
BITMAP
F0
88
88
88
F0
80
ENDCHAR
STARTCHAR q
ENCODING 113
SWIDTH 720 0
DWIDTH 6 0
BBX 5 6 1 -1
BITMAP
78
88
88
88
78
08
ENDCHAR
STARTCHAR r
ENCODING 114
SWIDTH 720 0
DWIDTH 6 0
BBX 4 5 1 0
BITMAP
B0
C0
80
80
80
ENDCHAR
STARTCHAR s
ENCODING 115
SWIDTH 720 0
DWIDTH 6 0
BBX 5 5 1 0
BITMAP
78
80
70
08
F0
ENDCHAR
STARTCHAR t
ENCODING 116
SWIDTH 720 0
DWIDTH 6 0
BBX 5 7 1 0
BITMAP
20
20
F8
20
20
20
18
ENDCHAR
STARTCHAR u
ENCODING 117
SWIDTH 720 0
DWIDTH 6 0
BBX 5 5 1 0
BITMAP
88
88
88
98
68
ENDCHAR
STARTCHAR v
ENCODING 118
SWIDTH 720 0
DWIDTH 6 0
BBX 5 5 1 0
BITMAP
88
88
50
50
20
ENDCHAR
STARTCHAR w
ENCODING 119
SWIDTH 720 0
DWIDTH 6 0
BBX 5 5 1 0
BITMAP
88
A8
A8
A8
50
ENDCHAR
STARTCHAR x
ENCODING 120
SWIDTH 720 0
DWIDTH 6 0
BBX 5 5 1 0
BITMAP
88
50
20
50
88
ENDCHAR
STARTCHAR y
ENCODING 121
SWIDTH 720 0
DWIDTH 6 0
BBX 5 6 1 -1
BITMAP
88
88
88
78
08
70
ENDCHAR
STARTCHAR z
ENCODING 122
SWIDTH 720 0
DWIDTH 6 0
BBX 5 5 1 0
BITMAP
F8
10
20
40
F8
ENDCHAR
STARTCHAR left
ENCODING 123
SWIDTH 720 0
DWIDTH 6 0
BBX 3 7 3 0
BITMAP
20
40
40
80
40
40
20
ENDCHAR
STARTCHAR pipe
ENCODING 124
SWIDTH 720 0
DWIDTH 6 0
BBX 1 7 3 0
BITMAP
80
80
80
80
80
80
80
ENDCHAR
STARTCHAR right
ENCODING 125
SWIDTH 720 0
DWIDTH 6 0
BBX 3 7 1 0
BITMAP
80
40
40
20
40
40
80
ENDCHAR
STARTCHAR tilde
ENCODING 126
SWIDTH 720 0
DWIDTH 6 0
BBX 5 3 1 4
BITMAP
40
A8
10
ENDCHAR
STARTCHAR inverted
ENCODING 161
SWIDTH 720 0
DWIDTH 6 0
BBX 5 8 1 -1
BITMAP
20
50
88
88
F8
88
88
10
ENDCHAR
STARTCHAR cent
ENCODING 162
SWIDTH 720 0
DWIDTH 6 0
BBX 4 2 1 5
BITMAP
90
60
ENDCHAR
STARTCHAR pound
ENCODING 163
SWIDTH 720 0
DWIDTH 6 0
BBX 6 7 0 0
BITMAP
40
60
40
C0
40
40
7C
ENDCHAR
STARTCHAR euro
ENCODING 164
SWIDTH 720 0
DWIDTH 6 0
BBX 5 5 1 1
BITMAP
88
70
50
70
88
ENDCHAR
STARTCHAR yen
ENCODING 165
SWIDTH 720 0
DWIDTH 6 0
BBX 5 7 1 0
BITMAP
A8
90
80
80
80
80
F8
ENDCHAR
STARTCHAR broken
ENCODING 166
SWIDTH 720 0
DWIDTH 6 0
BBX 5 7 1 0
BITMAP
20
70
88
60
10
88
70
ENDCHAR
STARTCHAR section
ENCODING 167
SWIDTH 720 0
DWIDTH 6 0
BBX 6 7 0 0
BITMAP
18
24
30
48
30
90
60
ENDCHAR
STARTCHAR dieresis
ENCODING 168
SWIDTH 720 0
DWIDTH 6 0
BBX 5 1 1 6
BITMAP
88
ENDCHAR
STARTCHAR copyright
ENCODING 169
SWIDTH 720 0
DWIDTH 6 0
BBX 5 7 1 0
BITMAP
50
70
88
60
10
88
70
ENDCHAR
STARTCHAR feminine
ENCODING 170
SWIDTH 720 0
DWIDTH 6 0
BBX 5 7 1 -1
BITMAP
70
88
60
10
88
70
30
ENDCHAR
STARTCHAR guillemot
ENCODING 171
SWIDTH 720 0
DWIDTH 6 0
BBX 5 7 1 0
BITMAP
50
20
F8
20
20
20
20
ENDCHAR
STARTCHAR not
ENCODING 172
SWIDTH 720 0
DWIDTH 6 0
BBX 5 7 1 0
BITMAP
40
F8
08
10
60
80
F8
ENDCHAR
STARTCHAR soft
ENCODING 173
SWIDTH 720 0
DWIDTH 6 0
BBX 5 1 1 3
BITMAP
F8
ENDCHAR
STARTCHAR registered
ENCODING 174
SWIDTH 720 0
DWIDTH 6 0
BBX 5 7 1 0
BITMAP
50
F8
08
10
60
80
F8
ENDCHAR
STARTCHAR macron
ENCODING 175
SWIDTH 720 0
DWIDTH 6 0
BBX 5 7 1 0
BITMAP
20
F8
08
10
60
80
F8
ENDCHAR
STARTCHAR degree
ENCODING 176
SWIDTH 720 0
DWIDTH 6 0
BBX 3 3 2 4
BITMAP
E0
A0
E0
ENDCHAR
STARTCHAR plus
ENCODING 177
SWIDTH 720 0
DWIDTH 6 0
BBX 5 6 1 -1
BITMAP
78
88
88
98
68
10
ENDCHAR
STARTCHAR superscript
ENCODING 178
SWIDTH 720 0
DWIDTH 6 0
BBX 2 2 3 -1
BITMAP
80
C0
ENDCHAR
STARTCHAR superscript
ENCODING 179
SWIDTH 720 0
DWIDTH 6 0
BBX 3 6 2 0
BITMAP
C0
60
40
C0
40
E0
ENDCHAR
STARTCHAR spacing
ENCODING 180
SWIDTH 720 0
DWIDTH 6 0
BBX 2 2 2 5
BITMAP
40
80
ENDCHAR
STARTCHAR micro
ENCODING 181
SWIDTH 720 0
DWIDTH 6 0
BBX 3 7 2 0
BITMAP
A0
40
C0
40
40
40
E0
ENDCHAR
STARTCHAR paragraph
ENCODING 182
SWIDTH 720 0
DWIDTH 6 0
BBX 5 7 1 0
BITMAP
10
20
78
80
70
08
F0
ENDCHAR
STARTCHAR middle
ENCODING 183
SWIDTH 720 0
DWIDTH 6 0
BBX 3 2 2 5
BITMAP
A0
40
ENDCHAR
STARTCHAR cedilla
ENCODING 184
SWIDTH 720 0
DWIDTH 6 0
BBX 2 2 2 -1
BITMAP
40
C0
ENDCHAR
STARTCHAR suprtscript
ENCODING 185
SWIDTH 720 0
DWIDTH 6 0
BBX 5 7 1 0
BITMAP
50
20
78
80
70
08
F0
ENDCHAR
STARTCHAR masculine
ENCODING 186
SWIDTH 720 0
DWIDTH 6 0
BBX 5 6 1 -1
BITMAP
78
80
70
08
F0
60
ENDCHAR
STARTCHAR guillemot
ENCODING 187
SWIDTH 720 0
DWIDTH 6 0
BBX 5 7 1 0
BITMAP
08
28
20
F8
20
20
18
ENDCHAR
STARTCHAR one
ENCODING 188
SWIDTH 720 0
DWIDTH 6 0
BBX 5 7 1 0
BITMAP
10
20
F8
10
20
40
F8
ENDCHAR
STARTCHAR one
ENCODING 189
SWIDTH 720 0
DWIDTH 6 0
BBX 5 2 1 5
BITMAP
48
90
ENDCHAR
STARTCHAR three
ENCODING 190
SWIDTH 720 0
DWIDTH 6 0
BBX 5 7 1 0
BITMAP
50
20
F8
10
20
40
F8
ENDCHAR
STARTCHAR inverted
ENCODING 191
SWIDTH 720 0
DWIDTH 6 0
BBX 5 7 1 0
BITMAP
20
20
F8
10
20
40
F8
ENDCHAR
STARTCHAR large
ENCODING 192
SWIDTH 720 0
DWIDTH 6 0
BBX 5 7 1 0
BITMAP
20
40
F0
88
88
F0
88
ENDCHAR
STARTCHAR large
ENCODING 193
SWIDTH 720 0
DWIDTH 6 0
BBX 5 7 1 0
BITMAP
20
40
20
50
88
F8
88
ENDCHAR
STARTCHAR large
ENCODING 194
SWIDTH 720 0
DWIDTH 6 0
BBX 5 7 1 0
BITMAP
70
88
20
50
88
F8
88
ENDCHAR
STARTCHAR large
ENCODING 195
SWIDTH 720 0
DWIDTH 6 0
BBX 5 7 1 0
BITMAP
88
70
20
50
88
F8
88
ENDCHAR
STARTCHAR large
ENCODING 196
SWIDTH 720 0
DWIDTH 6 0
BBX 5 7 1 0
BITMAP
88
20
50
88
F8
88
88
ENDCHAR
STARTCHAR large
ENCODING 197
SWIDTH 720 0
DWIDTH 6 0
BBX 4 7 2 0
BITMAP
40
80
00
80
80
80
F0
ENDCHAR
STARTCHAR large
ENCODING 198
SWIDTH 720 0
DWIDTH 6 0
BBX 5 7 1 0
BITMAP
10
70
88
80
80
88
70
ENDCHAR
STARTCHAR large
ENCODING 199
SWIDTH 720 0
DWIDTH 6 0
BBX 5 8 1 -1
BITMAP
70
88
80
80
80
88
70
30
ENDCHAR
STARTCHAR large
ENCODING 200
SWIDTH 720 0
DWIDTH 6 0
BBX 5 7 1 0
BITMAP
50
70
88
80
80
88
70
ENDCHAR
STARTCHAR large
ENCODING 201
SWIDTH 720 0
DWIDTH 6 0
BBX 5 7 1 0
BITMAP
10
F8
80
F0
80
80
F8
ENDCHAR
STARTCHAR large
ENCODING 202
SWIDTH 720 0
DWIDTH 6 0
BBX 5 8 1 -1
BITMAP
F8
80
80
F0
80
80
F8
30
ENDCHAR
STARTCHAR large
ENCODING 203
SWIDTH 720 0
DWIDTH 6 0
BBX 5 7 1 0
BITMAP
50
00
F8
80
E0
80
F8
ENDCHAR
STARTCHAR capital
ENCODING 204
SWIDTH 720 0
DWIDTH 6 0
BBX 5 7 1 0
BITMAP
50
F8
80
F0
80
80
F8
ENDCHAR
STARTCHAR capital
ENCODING 205
SWIDTH 720 0
DWIDTH 6 0
BBX 5 7 1 0
BITMAP
10
20
F8
20
20
20
F8
ENDCHAR
STARTCHAR capital
ENCODING 206
SWIDTH 720 0
DWIDTH 6 0
BBX 5 7 1 0
BITMAP
20
50
F8
20
20
20
F8
ENDCHAR
STARTCHAR capital
ENCODING 207
SWIDTH 720 0
DWIDTH 6 0
BBX 5 7 1 0
BITMAP
50
20
F0
88
88
88
F0
ENDCHAR
STARTCHAR capital
ENCODING 208
SWIDTH 720 0
DWIDTH 6 0
BBX 6 7 0 0
BITMAP
70
48
44
E4
44
48
70
ENDCHAR
STARTCHAR capital
ENCODING 209
SWIDTH 720 0
DWIDTH 6 0
BBX 5 7 1 0
BITMAP
08
90
C8
C8
A8
98
88
ENDCHAR
STARTCHAR capital
ENCODING 210
SWIDTH 720 0
DWIDTH 6 0
BBX 5 7 1 0
BITMAP
50
A8
C8
C8
A8
98
88
ENDCHAR
STARTCHAR capital
ENCODING 211
SWIDTH 720 0
DWIDTH 6 0
BBX 5 7 1 0
BITMAP
18
70
88
88
88
88
70
ENDCHAR
STARTCHAR capital
ENCODING 212
SWIDTH 720 0
DWIDTH 6 0
BBX 5 7 1 0
BITMAP
20
70
88
88
88
88
70
ENDCHAR
STARTCHAR capital
ENCODING 213
SWIDTH 720 0
DWIDTH 6 0
BBX 5 7 1 0
BITMAP
50
70
88
88
88
88
70
ENDCHAR
STARTCHAR capital
ENCODING 214
SWIDTH 720 0
DWIDTH 6 0
BBX 5 7 1 0
BITMAP
88
70
88
88
88
88
70
ENDCHAR
STARTCHAR multiply
ENCODING 215
SWIDTH 720 0
DWIDTH 6 0
BBX 5 5 1 1
BITMAP
88
50
20
50
88
ENDCHAR
STARTCHAR capital
ENCODING 216
SWIDTH 720 0
DWIDTH 6 0
BBX 5 7 1 0
BITMAP
50
F0
88
88
F0
90
88
ENDCHAR
STARTCHAR capital
ENCODING 217
SWIDTH 720 0
DWIDTH 6 0
BBX 5 7 1 0
BITMAP
20
D8
A8
88
88
88
70
ENDCHAR
STARTCHAR capital
ENCODING 218
SWIDTH 720 0
DWIDTH 6 0
BBX 5 7 1 0
BITMAP
10
A8
88
88
88
88
70
ENDCHAR
STARTCHAR capital
ENCODING 219
SWIDTH 720 0
DWIDTH 6 0
BBX 5 7 1 0
BITMAP
28
50
88
88
88
88
70
ENDCHAR
STARTCHAR capital
ENCODING 220
SWIDTH 720 0
DWIDTH 6 0
BBX 5 7 1 0
BITMAP
88
00
88
88
88
88
70
ENDCHAR
STARTCHAR capital
ENCODING 221
SWIDTH 720 0
DWIDTH 6 0
BBX 5 7 1 0
BITMAP
10
A8
88
50
20
20
20
ENDCHAR
STARTCHAR capital
ENCODING 222
SWIDTH 720 0
DWIDTH 6 0
BBX 5 8 1 -1
BITMAP
F8
20
20
20
20
20
20
40
ENDCHAR
STARTCHAR sharp
ENCODING 223
SWIDTH 720 0
DWIDTH 6 0
BBX 5 7 1 0
BITMAP
70
88
88
90
88
88
B0
ENDCHAR
STARTCHAR small
ENCODING 224
SWIDTH 720 0
DWIDTH 6 0
BBX 4 7 1 0
BITMAP
20
40
B0
C0
80
80
80
ENDCHAR
STARTCHAR small
ENCODING 225
SWIDTH 720 0
DWIDTH 6 0
BBX 5 7 1 0
BITMAP
10
20
78
88
88
98
68
ENDCHAR
STARTCHAR small
ENCODING 226
SWIDTH 720 0
DWIDTH 6 0
BBX 5 7 1 0
BITMAP
20
50
00
78
88
98
68
ENDCHAR
STARTCHAR small
ENCODING 227
SWIDTH 720 0
DWIDTH 6 0
BBX 5 7 1 0
BITMAP
88
70
00
78
88
98
68
ENDCHAR
STARTCHAR small
ENCODING 228
SWIDTH 720 0
DWIDTH 6 0
BBX 5 7 1 0
BITMAP
50
00
78
88
88
98
68
ENDCHAR
STARTCHAR small
ENCODING 229
SWIDTH 720 0
DWIDTH 6 0
BBX 3 7 2 0
BITMAP
20
40
C0
40
40
40
E0
ENDCHAR
STARTCHAR small
ENCODING 230
SWIDTH 720 0
DWIDTH 6 0
BBX 5 7 1 0
BITMAP
10
20
70
88
80
88
70
ENDCHAR
STARTCHAR small
ENCODING 231
SWIDTH 720 0
DWIDTH 6 0
BBX 5 6 1 -1
BITMAP
78
80
80
78
20
60
ENDCHAR
STARTCHAR small
ENCODING 232
SWIDTH 720 0
DWIDTH 6 0
BBX 5 7 1 0
BITMAP
50
20
70
88
80
88
70
ENDCHAR
STARTCHAR small
ENCODING 233
SWIDTH 720 0
DWIDTH 6 0
BBX 5 7 1 0
BITMAP
10
20
70
88
F8
80
70
ENDCHAR
STARTCHAR small
ENCODING 234
SWIDTH 720 0
DWIDTH 6 0
BBX 5 6 1 -1
BITMAP
70
88
F8
80
70
30
ENDCHAR
STARTCHAR small
ENCODING 235
SWIDTH 720 0
DWIDTH 6 0
BBX 5 7 1 0
BITMAP
50
00
70
88
F8
80
70
ENDCHAR
STARTCHAR small
ENCODING 236
SWIDTH 720 0
DWIDTH 6 0
BBX 5 7 1 0
BITMAP
50
20
70
88
F8
80
70
ENDCHAR
STARTCHAR small
ENCODING 237
SWIDTH 720 0
DWIDTH 6 0
BBX 3 7 2 0
BITMAP
20
40
00
C0
40
40
E0
ENDCHAR
STARTCHAR small
ENCODING 238
SWIDTH 720 0
DWIDTH 6 0
BBX 3 7 2 0
BITMAP
40
A0
00
C0
40
40
E0
ENDCHAR
STARTCHAR small
ENCODING 239
SWIDTH 720 0
DWIDTH 6 0
BBX 5 7 1 0
BITMAP
A8
48
08
78
88
88
78
ENDCHAR
STARTCHAR small
ENCODING 240
SWIDTH 720 0
DWIDTH 6 0
BBX 5 7 1 0
BITMAP
08
38
08
78
88
88
78
ENDCHAR
STARTCHAR small
ENCODING 241
SWIDTH 720 0
DWIDTH 6 0
BBX 5 7 1 0
BITMAP
20
40
00
B0
C8
88
88
ENDCHAR
STARTCHAR small
ENCODING 242
SWIDTH 720 0
DWIDTH 6 0
BBX 5 7 1 0
BITMAP
50
20
00
B0
C8
88
88
ENDCHAR
STARTCHAR small
ENCODING 243
SWIDTH 720 0
DWIDTH 6 0
BBX 5 7 1 0
BITMAP
10
20
70
88
88
88
70
ENDCHAR
STARTCHAR small
ENCODING 244
SWIDTH 720 0
DWIDTH 6 0
BBX 5 7 1 0
BITMAP
20
50
70
88
88
88
70
ENDCHAR
STARTCHAR small
ENCODING 245
SWIDTH 720 0
DWIDTH 6 0
BBX 5 7 1 0
BITMAP
48
90
70
88
88
88
70
ENDCHAR
STARTCHAR small
ENCODING 246
SWIDTH 720 0
DWIDTH 6 0
BBX 5 7 1 0
BITMAP
50
00
70
88
88
88
70
ENDCHAR
STARTCHAR division
ENCODING 247
SWIDTH 720 0
DWIDTH 6 0
BBX 5 5 1 1
BITMAP
20
00
F8
00
20
ENDCHAR
STARTCHAR small
ENCODING 248
SWIDTH 720 0
DWIDTH 6 0
BBX 4 7 1 0
BITMAP
A0
40
B0
C0
80
80
80
ENDCHAR
STARTCHAR small
ENCODING 249
SWIDTH 720 0
DWIDTH 6 0
BBX 5 7 1 0
BITMAP
20
50
A8
88
88
98
68
ENDCHAR
STARTCHAR small
ENCODING 250
SWIDTH 720 0
DWIDTH 6 0
BBX 5 7 1 0
BITMAP
10
20
88
88
88
98
68
ENDCHAR
STARTCHAR small
ENCODING 251
SWIDTH 720 0
DWIDTH 6 0
BBX 5 7 1 0
BITMAP
20
50
00
88
88
98
68
ENDCHAR
STARTCHAR small
ENCODING 252
SWIDTH 720 0
DWIDTH 6 0
BBX 5 7 1 0
BITMAP
50
00
88
88
88
98
68
ENDCHAR
STARTCHAR small
ENCODING 253
SWIDTH 720 0
DWIDTH 6 0
BBX 5 8 1 -1
BITMAP
10
20
88
88
88
78
08
70
ENDCHAR
STARTCHAR small
ENCODING 254
SWIDTH 720 0
DWIDTH 6 0
BBX 5 8 1 -1
BITMAP
20
20
F8
20
20
20
18
20
ENDCHAR
STARTCHAR small
ENCODING 255
SWIDTH 720 0
DWIDTH 6 0
BBX 1 2 3 5
BITMAP
80
80
ENDCHAR
ENDFONT
